<svg id="visual" viewBox="0 0 1920 1090" width="1920" height="1090" xmlns="http://www.w3.org/2000/svg" xmlns:xlink="http://www.w3.org/1999/xlink" version="1.1"><g stroke-width="1" stroke-linejoin="bevel"><path d="M971 488L999 397.3L921 438.2Z" fill="#00111f" stroke="#00111f"></path><path d="M1083 396.2L1051 349.3L999 397.3Z" fill="#001222" stroke="#001222"></path><path d="M999 397.3L917 315.3L921 438.2Z" fill="#0b1439" stroke="#0b1439"></path><path d="M1096 498.2L1083 396.2L999 397.3Z" fill="#01132f" stroke="#01132f"></path><path d="M921 438.2L853 490.2L971 488Z" fill="#001329" stroke="#001329"></path><path d="M1000 289.5L917 315.3L999 397.3Z" fill="#001222" stroke="#001222"></path><path d="M921 438.2L802 330.5L853 490.2Z" fill="#041434" stroke="#041434"></path><path d="M1082 587L1096 498.2L971 488Z" fill="#00101c" stroke="#00101c"></path><path d="M971 488L1096 498.2L999 397.3Z" fill="#0b1439" stroke="#0b1439"></path><path d="M853 490.2L854 518L971 488Z" fill="#00132c" stroke="#00132c"></path><path d="M1051 349.3L1000 289.5L999 397.3Z" fill="#0b1439" stroke="#0b1439"></path><path d="M1083 396.2L1104 328.3L1051 349.3Z" fill="#041434" stroke="#041434"></path><path d="M1051 349.3L1104 328.3L1000 289.5Z" fill="#00132c" stroke="#00132c"></path><path d="M1243 393.2L1104 328.3L1083 396.2Z" fill="#041434" stroke="#041434"></path><path d="M854 518L970 621.8L971 488Z" fill="#00132c" stroke="#00132c"></path><path d="M970 621.8L1082 587L971 488Z" fill="#001222" stroke="#001222"></path><path d="M853 490.2L788 500L854 518Z" fill="#00101c" stroke="#00101c"></path><path d="M917 725.7L988 705.7L970 621.8Z" fill="#0b1439" stroke="#0b1439"></path><path d="M756 393.3L788 500L853 490.2Z" fill="#00111f" stroke="#00111f"></path><path d="M853 220.5L802 330.5L917 315.3Z" fill="#0b1439" stroke="#0b1439"></path><path d="M917 315.3L802 330.5L921 438.2Z" fill="#001226" stroke="#001226"></path><path d="M970 621.8L1088 612.8L1082 587Z" fill="#021432" stroke="#021432"></path><path d="M1082 587L1201 590L1096 498.2Z" fill="#0b1439" stroke="#0b1439"></path><path d="M802 330.5L756 393.3L853 490.2Z" fill="#041434" stroke="#041434"></path><path d="M1011 200.7L923 217.5L1000 289.5Z" fill="#01132f" stroke="#01132f"></path><path d="M1000 289.5L923 217.5L917 315.3Z" fill="#00101c" stroke="#00101c"></path><path d="M1152 256.5L1011 200.7L1000 289.5Z" fill="#0b1439" stroke="#0b1439"></path><path d="M852 196.7L853 220.5L923 217.5Z" fill="#00111f" stroke="#00111f"></path><path d="M923 217.5L853 220.5L917 315.3Z" fill="#001222" stroke="#001222"></path><path d="M802 330.5L661 282.5L756 393.3Z" fill="#041434" stroke="#041434"></path><path d="M1232 325.3L1152 256.5L1104 328.3Z" fill="#041434" stroke="#041434"></path><path d="M1104 328.3L1152 256.5L1000 289.5Z" fill="#021432" stroke="#021432"></path><path d="M1243 393.2L1083 396.2L1096 498.2Z" fill="#001222" stroke="#001222"></path><path d="M1153 199.7L1012 184.7L1011 200.7Z" fill="#01132f" stroke="#01132f"></path><path d="M1011 200.7L1012 184.7L923 217.5Z" fill="#0b1439" stroke="#0b1439"></path><path d="M707 443.2L722 510.2L788 500Z" fill="#001329" stroke="#001329"></path><path d="M828 693.8L850 684.8L854 518Z" fill="#00111f" stroke="#00111f"></path><path d="M970 621.8L1037 689.7L1088 612.8Z" fill="#0b1439" stroke="#0b1439"></path><path d="M988 705.7L1037 689.7L970 621.8Z" fill="#00132c" stroke="#00132c"></path><path d="M756 393.3L707 443.2L788 500Z" fill="#00111f" stroke="#00111f"></path><path d="M620 396.3L707 443.2L756 393.3Z" fill="#00111f" stroke="#00111f"></path><path d="M850 684.8L970 621.8L854 518Z" fill="#021432" stroke="#021432"></path><path d="M911 103.8L852 196.7L923 217.5Z" fill="#041434" stroke="#041434"></path><path d="M853 220.5L752 189.7L802 330.5Z" fill="#071437" stroke="#071437"></path><path d="M828 693.8L854 518L788 500Z" fill="#00101c" stroke="#00101c"></path><path d="M1202 596L1201 590L1088 612.8Z" fill="#01132f" stroke="#01132f"></path><path d="M1088 612.8L1201 590L1082 587Z" fill="#0b1439" stroke="#0b1439"></path><path d="M1287 514.2L1243 393.2L1096 498.2Z" fill="#0b1439" stroke="#0b1439"></path><path d="M1206 653.8L1202 596L1088 612.8Z" fill="#071437" stroke="#071437"></path><path d="M1201 590L1287 514.2L1096 498.2Z" fill="#00132c" stroke="#00132c"></path><path d="M1243 393.2L1232 325.3L1104 328.3Z" fill="#001329" stroke="#001329"></path><path d="M850 684.8L917 725.7L970 621.8Z" fill="#001329" stroke="#001329"></path><path d="M722 510.2L828 693.8L788 500Z" fill="#01132f" stroke="#01132f"></path><path d="M850 684.8L828 693.8L917 725.7Z" fill="#01132f" stroke="#01132f"></path><path d="M1296 239.5L1153 199.7L1152 256.5Z" fill="#001329" stroke="#001329"></path><path d="M1152 256.5L1153 199.7L1011 200.7Z" fill="#041434" stroke="#041434"></path><path d="M707 443.2L660 496L722 510.2Z" fill="#00101c" stroke="#00101c"></path><path d="M722 510.2L737 713.7L828 693.8Z" fill="#0b1439" stroke="#0b1439"></path><path d="M620 396.3L660 496L707 443.2Z" fill="#041434" stroke="#041434"></path><path d="M1037 689.7L1206 653.8L1088 612.8Z" fill="#001222" stroke="#001222"></path><path d="M1289 590.8L1287 514.2L1201 590Z" fill="#0b1439" stroke="#0b1439"></path><path d="M1188 768.7L1206 653.8L1037 689.7Z" fill="#0b1439" stroke="#0b1439"></path><path d="M1010 800.5L1037 689.7L988 705.7Z" fill="#071437" stroke="#071437"></path><path d="M1289 590.8L1201 590L1202 596Z" fill="#001222" stroke="#001222"></path><path d="M1392 321.3L1299 258.5L1232 325.3Z" fill="#00132c" stroke="#00132c"></path><path d="M727 150.8L752 189.7L852 196.7Z" fill="#041434" stroke="#041434"></path><path d="M852 196.7L752 189.7L853 220.5Z" fill="#001329" stroke="#001329"></path><path d="M968 76.8L911 103.8L1012 184.7Z" fill="#01132f" stroke="#01132f"></path><path d="M1012 184.7L911 103.8L923 217.5Z" fill="#041434" stroke="#041434"></path><path d="M752 189.7L661 282.5L802 330.5Z" fill="#00101c" stroke="#00101c"></path><path d="M1206 653.8L1289 590.8L1202 596Z" fill="#00132c" stroke="#00132c"></path><path d="M661 282.5L620 396.3L756 393.3Z" fill="#041434" stroke="#041434"></path><path d="M649 623.8L737 713.7L722 510.2Z" fill="#0b1439" stroke="#0b1439"></path><path d="M828 693.8L820 835.5L917 725.7Z" fill="#001226" stroke="#001226"></path><path d="M649 623.8L722 510.2L660 496Z" fill="#071437" stroke="#071437"></path><path d="M1036 34.8L968 76.8L1012 184.7Z" fill="#01132f" stroke="#01132f"></path><path d="M954 877.5L1010 800.5L917 725.7Z" fill="#041434" stroke="#041434"></path><path d="M917 725.7L1010 800.5L988 705.7Z" fill="#001222" stroke="#001222"></path><path d="M560 393.2L606 405.3L620 396.3Z" fill="#021432" stroke="#021432"></path><path d="M620 396.3L606 405.3L660 496Z" fill="#00132c" stroke="#00132c"></path><path d="M615 600.8L649 623.8L660 496Z" fill="#01132f" stroke="#01132f"></path><path d="M1232 325.3L1296 239.5L1152 256.5Z" fill="#071437" stroke="#071437"></path><path d="M1153 199.7L1148 91.8L1012 184.7Z" fill="#001226" stroke="#001226"></path><path d="M1392 321.3L1232 325.3L1243 393.2Z" fill="#00101c" stroke="#00101c"></path><path d="M1381 398.2L1243 393.2L1287 514.2Z" fill="#01132f" stroke="#01132f"></path><path d="M1278 716.7L1311 600L1289 590.8Z" fill="#001226" stroke="#001226"></path><path d="M1289 590.8L1311 600L1287 514.2Z" fill="#041434" stroke="#041434"></path><path d="M1278 716.7L1289 590.8L1206 653.8Z" fill="#021432" stroke="#021432"></path><path d="M911 103.8L727 150.8L852 196.7Z" fill="#01132f" stroke="#01132f"></path><path d="M752 189.7L670 179.7L661 282.5Z" fill="#021432" stroke="#021432"></path><path d="M709 130.8L727 150.8L779 0Z" fill="#0b1439" stroke="#0b1439"></path><path d="M1299 258.5L1296 239.5L1232 325.3Z" fill="#041434" stroke="#041434"></path><path d="M1249 151.7L1148 91.8L1153 199.7Z" fill="#00101c" stroke="#00101c"></path><path d="M571 512L615 600.8L660 496Z" fill="#071437" stroke="#071437"></path><path d="M649 623.8L635 751.7L737 713.7Z" fill="#001329" stroke="#001329"></path><path d="M1186 777.5L1188 768.7L1037 689.7Z" fill="#001226" stroke="#001226"></path><path d="M727 150.8L670 179.7L752 189.7Z" fill="#021432" stroke="#021432"></path><path d="M575 264.5L560 393.2L620 396.3Z" fill="#01132f" stroke="#01132f"></path><path d="M1296 239.5L1249 151.7L1153 199.7Z" fill="#00101c" stroke="#00101c"></path><path d="M1010 800.5L1186 777.5L1037 689.7Z" fill="#071437" stroke="#071437"></path><path d="M1188 768.7L1278 716.7L1206 653.8Z" fill="#021432" stroke="#021432"></path><path d="M817 0L727 150.8L911 103.8Z" fill="#021432" stroke="#021432"></path><path d="M727 150.8L709 130.8L670 179.7Z" fill="#00111f" stroke="#00111f"></path><path d="M560 393.2L571 512L606 405.3Z" fill="#00132c" stroke="#00132c"></path><path d="M606 405.3L571 512L660 496Z" fill="#00132c" stroke="#00132c"></path><path d="M1148 91.8L1036 34.8L1012 184.7Z" fill="#071437" stroke="#071437"></path><path d="M968 76.8L817 0L911 103.8Z" fill="#00101c" stroke="#00101c"></path><path d="M1470 524L1381 398.2L1287 514.2Z" fill="#0b1439" stroke="#0b1439"></path><path d="M1299 258.5L1386 192.7L1296 239.5Z" fill="#00132c" stroke="#00132c"></path><path d="M1296 239.5L1365 140.8L1249 151.7Z" fill="#021432" stroke="#021432"></path><path d="M575 264.5L620 396.3L661 282.5Z" fill="#00111f" stroke="#00111f"></path><path d="M1285 767.5L1278 716.7L1188 768.7Z" fill="#021432" stroke="#021432"></path><path d="M1311 600L1383 596.8L1287 514.2Z" fill="#001222" stroke="#001222"></path><path d="M794 873.5L820 835.5L686 812.5Z" fill="#001329" stroke="#001329"></path><path d="M737 713.7L820 835.5L828 693.8Z" fill="#001329" stroke="#001329"></path><path d="M1010 800.5L1168 880.3L1186 777.5Z" fill="#001226" stroke="#001226"></path><path d="M1278 716.7L1343 657.8L1311 600Z" fill="#00101c" stroke="#00101c"></path><path d="M502 300.5L575 264.5L525 215.7Z" fill="#00101c" stroke="#00101c"></path><path d="M670 179.7L575 264.5L661 282.5Z" fill="#0b1439" stroke="#0b1439"></path><path d="M1381 398.2L1392 321.3L1243 393.2Z" fill="#0b1439" stroke="#0b1439"></path><path d="M560 393.2L540 522L571 512Z" fill="#00101c" stroke="#00101c"></path><path d="M571 512L540 522L615 600.8Z" fill="#00101c" stroke="#00101c"></path><path d="M546 668.7L635 751.7L649 623.8Z" fill="#001222" stroke="#001222"></path><path d="M452 395.3L540 522L560 393.2Z" fill="#00111f" stroke="#00111f"></path><path d="M820 835.5L954 877.5L917 725.7Z" fill="#071437" stroke="#071437"></path><path d="M1064 0L1018 0L1036 34.8Z" fill="#01132f" stroke="#01132f"></path><path d="M1036 34.8L1018 0L968 76.8Z" fill="#041434" stroke="#041434"></path><path d="M1064 0L1036 34.8L1148 91.8Z" fill="#001226" stroke="#001226"></path><path d="M1343 657.8L1383 596.8L1311 600Z" fill="#021432" stroke="#021432"></path><path d="M1381 398.2L1462 415.3L1392 321.3Z" fill="#001329" stroke="#001329"></path><path d="M1145 0L1064 0L1148 91.8Z" fill="#00101c" stroke="#00101c"></path><path d="M1278 716.7L1359 724.7L1343 657.8Z" fill="#021432" stroke="#021432"></path><path d="M1343 657.8L1476 666.7L1383 596.8Z" fill="#001222" stroke="#001222"></path><path d="M1186 777.5L1285 767.5L1188 768.7Z" fill="#001329" stroke="#001329"></path><path d="M1168 880.3L1285 767.5L1186 777.5Z" fill="#00132c" stroke="#00132c"></path><path d="M546 668.7L649 623.8L615 600.8Z" fill="#041434" stroke="#041434"></path><path d="M1018 0L817 0L968 76.8Z" fill="#041434" stroke="#041434"></path><path d="M525 215.7L575 264.5L670 179.7Z" fill="#01132f" stroke="#01132f"></path><path d="M686 812.5L820 835.5L737 713.7Z" fill="#00111f" stroke="#00111f"></path><path d="M844 945.2L945 919.3L954 877.5Z" fill="#021432" stroke="#021432"></path><path d="M635 751.7L686 812.5L737 713.7Z" fill="#041434" stroke="#041434"></path><path d="M540 522L533 613.8L615 600.8Z" fill="#021432" stroke="#021432"></path><path d="M1235 32.8L1148 91.8L1249 151.7Z" fill="#00132c" stroke="#00132c"></path><path d="M1235 32.8L1145 0L1148 91.8Z" fill="#001329" stroke="#001329"></path><path d="M989 940.2L1060 907.3L954 877.5Z" fill="#001226" stroke="#001226"></path><path d="M954 877.5L1060 907.3L1010 800.5Z" fill="#00101c" stroke="#00101c"></path><path d="M817 0L779 0L727 150.8Z" fill="#00101c" stroke="#00101c"></path><path d="M844 945.2L954 877.5L820 835.5Z" fill="#00111f" stroke="#00111f"></path><path d="M1392 321.3L1386 192.7L1299 258.5Z" fill="#0b1439" stroke="#0b1439"></path><path d="M1335 826.5L1359 724.7L1285 767.5Z" fill="#041434" stroke="#041434"></path><path d="M1285 767.5L1359 724.7L1278 716.7Z" fill="#00132c" stroke="#00132c"></path><path d="M533 613.8L546 668.7L615 600.8Z" fill="#01132f" stroke="#01132f"></path><path d="M635 751.7L583 833.5L686 812.5Z" fill="#00101c" stroke="#00101c"></path><path d="M1365 140.8L1235 32.8L1249 151.7Z" fill="#00111f" stroke="#00111f"></path><path d="M1060 907.3L1168 880.3L1010 800.5Z" fill="#001222" stroke="#001222"></path><path d="M525 215.7L670 179.7L517 173.7Z" fill="#01132f" stroke="#01132f"></path><path d="M575 264.5L502 300.5L560 393.2Z" fill="#00132c" stroke="#00132c"></path><path d="M540 522L416 544L533 613.8Z" fill="#00101c" stroke="#00101c"></path><path d="M1470 524L1287 514.2L1383 596.8Z" fill="#071437" stroke="#071437"></path><path d="M1470 524L1462 415.3L1381 398.2Z" fill="#021432" stroke="#021432"></path><path d="M1392 321.3L1428 212.5L1386 192.7Z" fill="#0b1439" stroke="#0b1439"></path><path d="M1386 192.7L1365 140.8L1296 239.5Z" fill="#00101c" stroke="#00101c"></path><path d="M517 173.7L670 179.7L523 109.8Z" fill="#001222" stroke="#001222"></path><path d="M945 919.3L989 940.2L954 877.5Z" fill="#00101c" stroke="#00101c"></path><path d="M1060 907.3L1074 958.2L1168 880.3Z" fill="#021432" stroke="#021432"></path><path d="M985 1090L989 940.2L901 1090Z" fill="#001329" stroke="#001329"></path><path d="M1476 666.7L1470 524L1383 596.8Z" fill="#01132f" stroke="#01132f"></path><path d="M690 955.3L775 907.3L686 812.5Z" fill="#001226" stroke="#001226"></path><path d="M686 812.5L775 907.3L794 873.5Z" fill="#021432" stroke="#021432"></path><path d="M794 873.5L815 931.3L820 835.5Z" fill="#001329" stroke="#001329"></path><path d="M1507 277.5L1428 212.5L1392 321.3Z" fill="#01132f" stroke="#01132f"></path><path d="M1386 192.7L1428 134.8L1365 140.8Z" fill="#00101c" stroke="#00101c"></path><path d="M779 0L709 0L709 130.8Z" fill="#071437" stroke="#071437"></path><path d="M775 907.3L815 931.3L794 873.5Z" fill="#00111f" stroke="#00111f"></path><path d="M433 415.2L452 395.3L349 388.3Z" fill="#001226" stroke="#001226"></path><path d="M502 300.5L452 395.3L560 393.2Z" fill="#00101c" stroke="#00101c"></path><path d="M533 613.8L423 771.7L546 668.7Z" fill="#071437" stroke="#071437"></path><path d="M1510 208.7L1433 198.7L1428 212.5Z" fill="#00101c" stroke="#00101c"></path><path d="M1428 212.5L1433 198.7L1386 192.7Z" fill="#01132f" stroke="#01132f"></path><path d="M815 931.3L844 945.2L820 835.5Z" fill="#001329" stroke="#001329"></path><path d="M523 109.8L670 179.7L709 130.8Z" fill="#00111f" stroke="#00111f"></path><path d="M525 215.7L434 301.5L502 300.5Z" fill="#041434" stroke="#041434"></path><path d="M1595 443.2L1492 370.3L1462 415.3Z" fill="#071437" stroke="#071437"></path><path d="M1462 415.3L1492 370.3L1392 321.3Z" fill="#01132f" stroke="#01132f"></path><path d="M1365 140.8L1264 0L1235 32.8Z" fill="#021432" stroke="#021432"></path><path d="M1235 32.8L1264 0L1145 0Z" fill="#00132c" stroke="#00132c"></path><path d="M1367 0L1264 0L1365 140.8Z" fill="#071437" stroke="#071437"></path><path d="M1100 985.2L1074 958.2L1036 1090Z" fill="#071437" stroke="#071437"></path><path d="M989 940.2L1074 958.2L1060 907.3Z" fill="#001222" stroke="#001222"></path><path d="M1168 880.3L1335 826.5L1285 767.5Z" fill="#021432" stroke="#021432"></path><path d="M1402 858.3L1335 826.5L1297 964.3Z" fill="#00111f" stroke="#00111f"></path><path d="M1359 724.7L1476 666.7L1343 657.8Z" fill="#001222" stroke="#001222"></path><path d="M815 931.3L826 951.2L844 945.2Z" fill="#041434" stroke="#041434"></path><path d="M901 1090L989 940.2L945 919.3Z" fill="#041434" stroke="#041434"></path><path d="M775 907.3L826 951.2L815 931.3Z" fill="#021432" stroke="#021432"></path><path d="M434 301.5L452 395.3L502 300.5Z" fill="#001222" stroke="#001222"></path><path d="M452 395.3L433 415.2L540 522Z" fill="#01132f" stroke="#01132f"></path><path d="M1510 208.7L1428 134.8L1433 198.7Z" fill="#001222" stroke="#001222"></path><path d="M1433 198.7L1428 134.8L1386 192.7Z" fill="#00111f" stroke="#00111f"></path><path d="M546 668.7L583 833.5L635 751.7Z" fill="#00101c" stroke="#00101c"></path><path d="M775 907.3L690 955.3L826 951.2Z" fill="#001222" stroke="#001222"></path><path d="M429 789.5L583 833.5L546 668.7Z" fill="#041434" stroke="#041434"></path><path d="M371 163.7L434 301.5L525 215.7Z" fill="#001226" stroke="#001226"></path><path d="M1490 737.7L1476 666.7L1359 724.7Z" fill="#001222" stroke="#001222"></path><path d="M1470 524L1534 514.2L1462 415.3Z" fill="#001226" stroke="#001226"></path><path d="M628 0L523 109.8L709 130.8Z" fill="#001226" stroke="#001226"></path><path d="M517 173.7L371 163.7L525 215.7Z" fill="#041434" stroke="#041434"></path><path d="M709 0L628 0L709 130.8Z" fill="#001329" stroke="#001329"></path><path d="M1646 359.3L1507 277.5L1492 370.3Z" fill="#01132f" stroke="#01132f"></path><path d="M1492 370.3L1507 277.5L1392 321.3Z" fill="#001329" stroke="#001329"></path><path d="M1036 1090L1074 958.2L989 940.2Z" fill="#021432" stroke="#021432"></path><path d="M1074 958.2L1100 985.2L1168 880.3Z" fill="#071437" stroke="#071437"></path><path d="M388 512.2L416 544L433 415.2Z" fill="#00111f" stroke="#00111f"></path><path d="M433 415.2L416 544L540 522Z" fill="#001329" stroke="#001329"></path><path d="M1588 582L1534 514.2L1470 524Z" fill="#00101c" stroke="#00101c"></path><path d="M1642 243.5L1510 208.7L1507 277.5Z" fill="#00111f" stroke="#00111f"></path><path d="M1507 277.5L1510 208.7L1428 212.5Z" fill="#00111f" stroke="#00111f"></path><path d="M349 388.3L388 512.2L433 415.2Z" fill="#00101c" stroke="#00101c"></path><path d="M317 641.8L423 771.7L533 613.8Z" fill="#001329" stroke="#001329"></path><path d="M583 833.5L690 955.3L686 812.5Z" fill="#071437" stroke="#071437"></path><path d="M901 1090L945 919.3L844 945.2Z" fill="#001222" stroke="#001222"></path><path d="M1416 0L1367 0L1428 134.8Z" fill="#001226" stroke="#001226"></path><path d="M1428 134.8L1367 0L1365 140.8Z" fill="#00111f" stroke="#00111f"></path><path d="M1457 801.5L1359 724.7L1335 826.5Z" fill="#041434" stroke="#041434"></path><path d="M1457 801.5L1490 737.7L1359 724.7Z" fill="#021432" stroke="#021432"></path><path d="M1588 582L1592 563L1534 514.2Z" fill="#001226" stroke="#001226"></path><path d="M1297 964.3L1335 826.5L1168 880.3Z" fill="#041434" stroke="#041434"></path><path d="M1402 858.3L1457 801.5L1335 826.5Z" fill="#00132c" stroke="#00132c"></path><path d="M1100 985.2L1297 964.3L1168 880.3Z" fill="#021432" stroke="#021432"></path><path d="M320 391.3L349 388.3L240 293.5Z" fill="#071437" stroke="#071437"></path><path d="M434 301.5L349 388.3L452 395.3Z" fill="#00101c" stroke="#00101c"></path><path d="M1592 563L1595 443.2L1534 514.2Z" fill="#01132f" stroke="#01132f"></path><path d="M1534 514.2L1595 443.2L1462 415.3Z" fill="#021432" stroke="#021432"></path><path d="M1479 0L1416 0L1428 134.8Z" fill="#00132c" stroke="#00132c"></path><path d="M1588 582L1476 666.7L1585 679.8Z" fill="#041434" stroke="#041434"></path><path d="M1588 582L1470 524L1476 666.7Z" fill="#001329" stroke="#001329"></path><path d="M1585 679.8L1476 666.7L1490 737.7Z" fill="#001222" stroke="#001222"></path><path d="M336 582.8L416 544L388 512.2Z" fill="#00132c" stroke="#00132c"></path><path d="M317 641.8L533 613.8L416 544Z" fill="#071437" stroke="#071437"></path><path d="M583 833.5L564 953.3L690 955.3Z" fill="#071437" stroke="#071437"></path><path d="M446 34.8L425 100.8L523 109.8Z" fill="#001226" stroke="#001226"></path><path d="M523 109.8L425 100.8L517 173.7Z" fill="#071437" stroke="#071437"></path><path d="M423 771.7L429 789.5L546 668.7Z" fill="#071437" stroke="#071437"></path><path d="M319 568L336 582.8L388 512.2Z" fill="#001329" stroke="#001329"></path><path d="M423 771.7L368 779.7L429 789.5Z" fill="#01132f" stroke="#01132f"></path><path d="M901 1090L844 945.2L826 951.2Z" fill="#01132f" stroke="#01132f"></path><path d="M1195 1090L1305 1006.2L1297 964.3Z" fill="#041434" stroke="#041434"></path><path d="M240 293.5L349 388.3L434 301.5Z" fill="#071437" stroke="#071437"></path><path d="M349 388.3L317 397.2L388 512.2Z" fill="#00111f" stroke="#00111f"></path><path d="M985 1090L1036 1090L989 940.2Z" fill="#001222" stroke="#001222"></path><path d="M236 393.3L317 397.2L320 391.3Z" fill="#001226" stroke="#001226"></path><path d="M320 391.3L317 397.2L349 388.3Z" fill="#001329" stroke="#001329"></path><path d="M808 1090L826 951.2L690 955.3Z" fill="#00132c" stroke="#00132c"></path><path d="M808 1090L901 1090L826 951.2Z" fill="#021432" stroke="#021432"></path><path d="M536 930.3L564 953.3L583 833.5Z" fill="#01132f" stroke="#01132f"></path><path d="M429 789.5L536 930.3L583 833.5Z" fill="#071437" stroke="#071437"></path><path d="M1195 1090L1297 964.3L1100 985.2Z" fill="#071437" stroke="#071437"></path><path d="M1297 964.3L1449 897.3L1402 858.3Z" fill="#021432" stroke="#021432"></path><path d="M1402 858.3L1449 897.3L1457 801.5Z" fill="#01132f" stroke="#01132f"></path><path d="M425 100.8L371 163.7L517 173.7Z" fill="#041434" stroke="#041434"></path><path d="M1587 690.7L1585 679.8L1490 737.7Z" fill="#0b1439" stroke="#0b1439"></path><path d="M1588 582L1666 574.8L1592 563Z" fill="#001222" stroke="#001222"></path><path d="M1587 690.7L1490 737.7L1568 858.5Z" fill="#01132f" stroke="#01132f"></path><path d="M628 0L446 34.8L523 109.8Z" fill="#071437" stroke="#071437"></path><path d="M249 121.7L292 192.7L371 163.7Z" fill="#01132f" stroke="#01132f"></path><path d="M1305 1006.2L1449 897.3L1297 964.3Z" fill="#021432" stroke="#021432"></path><path d="M317 397.2L319 568L388 512.2Z" fill="#00111f" stroke="#00111f"></path><path d="M336 582.8L317 641.8L416 544Z" fill="#001226" stroke="#001226"></path><path d="M1568 858.5L1490 737.7L1457 801.5Z" fill="#0b1439" stroke="#0b1439"></path><path d="M1585 679.8L1666 574.8L1588 582Z" fill="#0b1439" stroke="#0b1439"></path><path d="M1036 1090L1112 1090L1100 985.2Z" fill="#041434" stroke="#041434"></path><path d="M1564 101.8L1479 0L1428 134.8Z" fill="#00101c" stroke="#00101c"></path><path d="M1564 101.8L1428 134.8L1510 208.7Z" fill="#00101c" stroke="#00101c"></path><path d="M630 1090L808 1090L690 955.3Z" fill="#001329" stroke="#001329"></path><path d="M1711 397.3L1646 359.3L1595 443.2Z" fill="#00132c" stroke="#00132c"></path><path d="M1595 443.2L1646 359.3L1492 370.3Z" fill="#00101c" stroke="#00101c"></path><path d="M1666 574.8L1595 443.2L1592 563Z" fill="#001329" stroke="#001329"></path><path d="M1658 203.7L1564 101.8L1510 208.7Z" fill="#0b1439" stroke="#0b1439"></path><path d="M319 568L317 641.8L336 582.8Z" fill="#001226" stroke="#001226"></path><path d="M274 676.7L317 641.8L319 568Z" fill="#041434" stroke="#041434"></path><path d="M1112 1090L1195 1090L1100 985.2Z" fill="#001222" stroke="#001222"></path><path d="M1305 1006.2L1489 944.2L1449 897.3Z" fill="#021432" stroke="#021432"></path><path d="M608 1056.2L621 1036.2L564 953.3Z" fill="#001329" stroke="#001329"></path><path d="M564 953.3L621 1036.2L690 955.3Z" fill="#071437" stroke="#071437"></path><path d="M317 641.8L368 779.7L423 771.7Z" fill="#001222" stroke="#001222"></path><path d="M429 789.5L434 951.2L536 930.3Z" fill="#00101c" stroke="#00101c"></path><path d="M574 1090L608 1056.2L514 1090Z" fill="#001329" stroke="#001329"></path><path d="M1195 1090L1287 1057.2L1305 1006.2Z" fill="#001329" stroke="#001329"></path><path d="M628 0L431 0L446 34.8Z" fill="#021432" stroke="#021432"></path><path d="M446 34.8L323 0L425 100.8Z" fill="#001222" stroke="#001222"></path><path d="M1646 359.3L1642 243.5L1507 277.5Z" fill="#041434" stroke="#041434"></path><path d="M1724 574L1666 574.8L1732 718.7Z" fill="#021432" stroke="#021432"></path><path d="M1732 718.7L1666 574.8L1585 679.8Z" fill="#041434" stroke="#041434"></path><path d="M1674 186.7L1658 203.7L1768 257.5Z" fill="#01132f" stroke="#01132f"></path><path d="M444 967.2L564 953.3L536 930.3Z" fill="#001226" stroke="#001226"></path><path d="M621 1036.2L630 1090L690 955.3Z" fill="#00132c" stroke="#00132c"></path><path d="M338 917.3L375 836.5L224 813.5Z" fill="#021432" stroke="#021432"></path><path d="M368 779.7L375 836.5L429 789.5Z" fill="#001329" stroke="#001329"></path><path d="M249 141.8L292 192.7L249 121.7Z" fill="#00111f" stroke="#00111f"></path><path d="M371 163.7L292 192.7L434 301.5Z" fill="#0b1439" stroke="#0b1439"></path><path d="M317 397.2L236 393.3L319 568Z" fill="#071437" stroke="#071437"></path><path d="M1397 1090L1489 944.2L1305 1006.2Z" fill="#071437" stroke="#071437"></path><path d="M1449 897.3L1568 858.5L1457 801.5Z" fill="#001226" stroke="#001226"></path><path d="M1768 257.5L1642 243.5L1646 359.3Z" fill="#021432" stroke="#021432"></path><path d="M1642 243.5L1658 203.7L1510 208.7Z" fill="#021432" stroke="#021432"></path><path d="M1564 101.8L1628 0L1479 0Z" fill="#021432" stroke="#021432"></path><path d="M1489 944.2L1568 858.5L1449 897.3Z" fill="#00111f" stroke="#00111f"></path><path d="M574 1090L630 1090L608 1056.2Z" fill="#041434" stroke="#041434"></path><path d="M608 1056.2L630 1090L621 1036.2Z" fill="#0b1439" stroke="#0b1439"></path><path d="M240 293.5L236 393.3L320 391.3Z" fill="#0b1439" stroke="#0b1439"></path><path d="M317 641.8L274 676.7L368 779.7Z" fill="#001329" stroke="#001329"></path><path d="M172 638.8L274 676.7L319 568Z" fill="#071437" stroke="#071437"></path><path d="M1666 574.8L1711 397.3L1595 443.2Z" fill="#0b1439" stroke="#0b1439"></path><path d="M375 836.5L434 951.2L429 789.5Z" fill="#001222" stroke="#001222"></path><path d="M338 917.3L434 951.2L375 836.5Z" fill="#001222" stroke="#001222"></path><path d="M292 192.7L240 293.5L434 301.5Z" fill="#001226" stroke="#001226"></path><path d="M434 951.2L444 967.2L536 930.3Z" fill="#001222" stroke="#001222"></path><path d="M1768 257.5L1658 203.7L1642 243.5Z" fill="#01132f" stroke="#01132f"></path><path d="M1658 203.7L1682 130.8L1564 101.8Z" fill="#01132f" stroke="#01132f"></path><path d="M1195 1090L1362 1090L1287 1057.2Z" fill="#001329" stroke="#001329"></path><path d="M1287 1057.2L1362 1090L1305 1006.2Z" fill="#00111f" stroke="#00111f"></path><path d="M1593 945.3L1618 859.5L1568 858.5Z" fill="#021432" stroke="#021432"></path><path d="M514 1090L608 1056.2L564 953.3Z" fill="#041434" stroke="#041434"></path><path d="M1732 718.7L1585 679.8L1587 690.7Z" fill="#00111f" stroke="#00111f"></path><path d="M1666 574.8L1747 418.2L1711 397.3Z" fill="#00101c" stroke="#00101c"></path><path d="M1593 945.3L1568 858.5L1489 944.2Z" fill="#001329" stroke="#001329"></path><path d="M1568 858.5L1618 859.5L1587 690.7Z" fill="#00111f" stroke="#00111f"></path><path d="M1734 117.8L1682 130.8L1674 186.7Z" fill="#021432" stroke="#021432"></path><path d="M1674 186.7L1682 130.8L1658 203.7Z" fill="#001226" stroke="#001226"></path><path d="M1724 574L1747 418.2L1666 574.8Z" fill="#001329" stroke="#001329"></path><path d="M1711 397.3L1768 257.5L1646 359.3Z" fill="#0b1439" stroke="#0b1439"></path><path d="M148 344.3L194 423.2L236 393.3Z" fill="#00132c" stroke="#00132c"></path><path d="M236 393.3L194 423.2L319 568Z" fill="#00132c" stroke="#00132c"></path><path d="M249 141.8L206 298.5L240 293.5Z" fill="#001329" stroke="#001329"></path><path d="M240 293.5L206 298.5L236 393.3Z" fill="#001329" stroke="#001329"></path><path d="M249 141.8L240 293.5L292 192.7Z" fill="#00132c" stroke="#00132c"></path><path d="M1362 1090L1397 1090L1305 1006.2Z" fill="#041434" stroke="#041434"></path><path d="M290 32.8L371 163.7L425 100.8Z" fill="#0b1439" stroke="#0b1439"></path><path d="M431 0L323 0L446 34.8Z" fill="#0b1439" stroke="#0b1439"></path><path d="M290 32.8L249 121.7L371 163.7Z" fill="#00101c" stroke="#00101c"></path><path d="M82 244.5L148 344.3L206 298.5Z" fill="#001329" stroke="#001329"></path><path d="M1682 130.8L1628 0L1564 101.8Z" fill="#041434" stroke="#041434"></path><path d="M323 0L290 32.8L425 100.8Z" fill="#00101c" stroke="#00101c"></path><path d="M243 775.5L368 779.7L274 676.7Z" fill="#041434" stroke="#041434"></path><path d="M243 775.5L375 836.5L368 779.7Z" fill="#00132c" stroke="#00132c"></path><path d="M434 951.2L340 1090L444 967.2Z" fill="#041434" stroke="#041434"></path><path d="M444 967.2L514 1090L564 953.3Z" fill="#00101c" stroke="#00101c"></path><path d="M340 1090L514 1090L444 967.2Z" fill="#00101c" stroke="#00101c"></path><path d="M142 579.8L180 544L123 503.2Z" fill="#001222" stroke="#001222"></path><path d="M194 423.2L180 544L319 568Z" fill="#001329" stroke="#001329"></path><path d="M191 759.7L243 775.5L274 676.7Z" fill="#041434" stroke="#041434"></path><path d="M1583 965.3L1593 945.3L1489 944.2Z" fill="#00101c" stroke="#00101c"></path><path d="M1728 818.5L1732 718.7L1587 690.7Z" fill="#01132f" stroke="#01132f"></path><path d="M1579 984.2L1583 965.3L1489 944.2Z" fill="#071437" stroke="#071437"></path><path d="M1728 818.5L1587 690.7L1618 859.5Z" fill="#0b1439" stroke="#0b1439"></path><path d="M1724 574L1840 514.2L1747 418.2Z" fill="#021432" stroke="#021432"></path><path d="M1728 818.5L1618 859.5L1736 856.3Z" fill="#00132c" stroke="#00132c"></path><path d="M323 0L287 0L290 32.8Z" fill="#0b1439" stroke="#0b1439"></path><path d="M290 32.8L198 0L249 121.7Z" fill="#001329" stroke="#001329"></path><path d="M1509 1090L1579 984.2L1489 944.2Z" fill="#00111f" stroke="#00111f"></path><path d="M1583 965.3L1710 981.2L1593 945.3Z" fill="#00101c" stroke="#00101c"></path><path d="M1747 418.2L1768 257.5L1711 397.3Z" fill="#00132c" stroke="#00132c"></path><path d="M1682 130.8L1741 0L1628 0Z" fill="#00101c" stroke="#00101c"></path><path d="M1862 350.3L1768 257.5L1747 418.2Z" fill="#021432" stroke="#021432"></path><path d="M180 544L172 638.8L319 568Z" fill="#00132c" stroke="#00132c"></path><path d="M1768 257.5L1734 117.8L1674 186.7Z" fill="#001222" stroke="#001222"></path><path d="M82 244.5L206 298.5L249 141.8Z" fill="#021432" stroke="#021432"></path><path d="M206 298.5L148 344.3L236 393.3Z" fill="#0b1439" stroke="#0b1439"></path><path d="M180 544L142 579.8L172 638.8Z" fill="#001222" stroke="#001222"></path><path d="M82 244.5L249 141.8L101 128.7Z" fill="#001222" stroke="#001222"></path><path d="M191 759.7L224 813.5L243 775.5Z" fill="#071437" stroke="#071437"></path><path d="M243 775.5L224 813.5L375 836.5Z" fill="#001222" stroke="#001222"></path><path d="M338 917.3L340 1090L434 951.2Z" fill="#041434" stroke="#041434"></path><path d="M123 503.2L180 544L194 423.2Z" fill="#001222" stroke="#001222"></path><path d="M172 638.8L191 759.7L274 676.7Z" fill="#001329" stroke="#001329"></path><path d="M1807 709.7L1788 642.8L1732 718.7Z" fill="#001329" stroke="#001329"></path><path d="M1732 718.7L1788 642.8L1724 574Z" fill="#00111f" stroke="#00111f"></path><path d="M1788 642.8L1799 594L1724 574Z" fill="#00111f" stroke="#00111f"></path><path d="M51 698.7L191 759.7L172 638.8Z" fill="#001329" stroke="#001329"></path><path d="M1397 1090L1509 1090L1489 944.2Z" fill="#00101c" stroke="#00101c"></path><path d="M1736 856.3L1618 859.5L1710 981.2Z" fill="#041434" stroke="#041434"></path><path d="M1710 981.2L1583 965.3L1579 984.2Z" fill="#071437" stroke="#071437"></path><path d="M148 344.3L123 503.2L194 423.2Z" fill="#041434" stroke="#041434"></path><path d="M1509 1090L1585 1028.2L1579 984.2Z" fill="#00101c" stroke="#00101c"></path><path d="M51 698.7L111 573L0 605.8Z" fill="#00101c" stroke="#00101c"></path><path d="M123 503.2L111 573L142 579.8Z" fill="#041434" stroke="#041434"></path><path d="M142 579.8L111 573L172 638.8Z" fill="#041434" stroke="#041434"></path><path d="M1710 981.2L1618 859.5L1593 945.3Z" fill="#001329" stroke="#001329"></path><path d="M1728 818.5L1783 762.5L1732 718.7Z" fill="#041434" stroke="#041434"></path><path d="M1862 638.8L1799 594L1788 642.8Z" fill="#001329" stroke="#001329"></path><path d="M1862 638.8L1840 514.2L1799 594Z" fill="#00132c" stroke="#00132c"></path><path d="M1799 594L1840 514.2L1724 574Z" fill="#01132f" stroke="#01132f"></path><path d="M1796 0L1741 0L1734 117.8Z" fill="#00101c" stroke="#00101c"></path><path d="M1736 856.3L1783 762.5L1728 818.5Z" fill="#01132f" stroke="#01132f"></path><path d="M1783 762.5L1807 709.7L1732 718.7Z" fill="#001329" stroke="#001329"></path><path d="M1734 117.8L1741 0L1682 130.8Z" fill="#01132f" stroke="#01132f"></path><path d="M1841 168.7L1734 117.8L1768 257.5Z" fill="#01132f" stroke="#01132f"></path><path d="M287 0L198 0L290 32.8Z" fill="#071437" stroke="#071437"></path><path d="M148 344.3L0 444.2L123 503.2Z" fill="#021432" stroke="#021432"></path><path d="M230 948.3L224 813.5L145 877.3Z" fill="#01132f" stroke="#01132f"></path><path d="M230 948.3L338 917.3L224 813.5Z" fill="#001222" stroke="#001222"></path><path d="M230 948.3L244 955.3L338 917.3Z" fill="#01132f" stroke="#01132f"></path><path d="M1840 514.2L1862 350.3L1747 418.2Z" fill="#00132c" stroke="#00132c"></path><path d="M145 877.3L224 813.5L191 759.7Z" fill="#00101c" stroke="#00101c"></path><path d="M331 1090L340 1090L338 917.3Z" fill="#001226" stroke="#001226"></path><path d="M331 1090L338 917.3L251 1058.2Z" fill="#001226" stroke="#001226"></path><path d="M101 128.7L249 141.8L249 121.7Z" fill="#00111f" stroke="#00111f"></path><path d="M1872 262.5L1841 168.7L1768 257.5Z" fill="#001222" stroke="#001222"></path><path d="M251 1058.2L338 917.3L244 955.3Z" fill="#00101c" stroke="#00101c"></path><path d="M1862 638.8L1807 709.7L1920 728.7Z" fill="#021432" stroke="#021432"></path><path d="M1920 615.8L1862 638.8L1920 728.7Z" fill="#001222" stroke="#001222"></path><path d="M1807 709.7L1862 638.8L1788 642.8Z" fill="#00132c" stroke="#00132c"></path><path d="M1840 514.2L1920 489.2L1862 350.3Z" fill="#00132c" stroke="#00132c"></path><path d="M1585 1028.2L1710 981.2L1579 984.2Z" fill="#071437" stroke="#071437"></path><path d="M1920 824.5L1920 728.7L1783 762.5Z" fill="#041434" stroke="#041434"></path><path d="M1671 1090L1710 981.2L1585 1028.2Z" fill="#001222" stroke="#001222"></path><path d="M1862 350.3L1872 262.5L1768 257.5Z" fill="#00111f" stroke="#00111f"></path><path d="M1920 301.5L1872 262.5L1862 350.3Z" fill="#01132f" stroke="#01132f"></path><path d="M153 0L101 128.7L249 121.7Z" fill="#041434" stroke="#041434"></path><path d="M198 0L153 0L249 121.7Z" fill="#001226" stroke="#001226"></path><path d="M1860 77.8L1734 117.8L1841 168.7Z" fill="#00111f" stroke="#00111f"></path><path d="M1860 77.8L1796 0L1734 117.8Z" fill="#00111f" stroke="#00111f"></path><path d="M47 802.5L145 877.3L191 759.7Z" fill="#00101c" stroke="#00101c"></path><path d="M230 948.3L251 1058.2L244 955.3Z" fill="#001329" stroke="#001329"></path><path d="M219 1090L251 1058.2L131 1053.2Z" fill="#00101c" stroke="#00101c"></path><path d="M1920 519L1920 489.2L1840 514.2Z" fill="#0b1439" stroke="#0b1439"></path><path d="M1920 615.8L1920 519L1840 514.2Z" fill="#071437" stroke="#071437"></path><path d="M1920 615.8L1840 514.2L1862 638.8Z" fill="#00132c" stroke="#00132c"></path><path d="M1920 489.2L1920 353.3L1862 350.3Z" fill="#001329" stroke="#001329"></path><path d="M1872 262.5L1920 150.7L1841 168.7Z" fill="#071437" stroke="#071437"></path><path d="M0 554L111 573L123 503.2Z" fill="#001226" stroke="#001226"></path><path d="M111 573L51 698.7L172 638.8Z" fill="#0b1439" stroke="#0b1439"></path><path d="M1509 1090L1671 1090L1585 1028.2Z" fill="#0b1439" stroke="#0b1439"></path><path d="M1920 728.7L1807 709.7L1783 762.5Z" fill="#001222" stroke="#001222"></path><path d="M1920 353.3L1920 301.5L1862 350.3Z" fill="#041434" stroke="#041434"></path><path d="M1920 150.7L1860 77.8L1841 168.7Z" fill="#001226" stroke="#001226"></path><path d="M1671 1090L1679 1090L1710 981.2Z" fill="#00101c" stroke="#00101c"></path><path d="M1783 762.5L1736 856.3L1920 824.5Z" fill="#001222" stroke="#001222"></path><path d="M0 356.3L0 444.2L148 344.3Z" fill="#021432" stroke="#021432"></path><path d="M0 356.3L148 344.3L82 244.5Z" fill="#001329" stroke="#001329"></path><path d="M0 266.5L82 244.5L0 185.7Z" fill="#041434" stroke="#041434"></path><path d="M0 266.5L0 356.3L82 244.5Z" fill="#071437" stroke="#071437"></path><path d="M0 444.2L0 554L123 503.2Z" fill="#001226" stroke="#001226"></path><path d="M0 554L0 605.8L111 573Z" fill="#021432" stroke="#021432"></path><path d="M51 698.7L47 802.5L191 759.7Z" fill="#00111f" stroke="#00111f"></path><path d="M0 185.7L82 244.5L101 128.7Z" fill="#00101c" stroke="#00101c"></path><path d="M1920 301.5L1920 150.7L1872 262.5Z" fill="#00111f" stroke="#00111f"></path><path d="M1860 77.8L1920 0L1796 0Z" fill="#001329" stroke="#001329"></path><path d="M1920 824.5L1736 856.3L1920 869.3Z" fill="#021432" stroke="#021432"></path><path d="M0 764.7L47 802.5L51 698.7Z" fill="#00101c" stroke="#00101c"></path><path d="M131 1053.2L251 1058.2L230 948.3Z" fill="#001329" stroke="#001329"></path><path d="M109 1004.2L230 948.3L145 877.3Z" fill="#001329" stroke="#001329"></path><path d="M251 1058.2L219 1090L331 1090Z" fill="#001329" stroke="#001329"></path><path d="M153 0L36 85.8L101 128.7Z" fill="#071437" stroke="#071437"></path><path d="M36 85.8L0 185.7L101 128.7Z" fill="#0b1439" stroke="#0b1439"></path><path d="M1920 150.7L1920 67.8L1860 77.8Z" fill="#071437" stroke="#071437"></path><path d="M0 605.8L0 764.7L51 698.7Z" fill="#00111f" stroke="#00111f"></path><path d="M0 876.3L109 1004.2L145 877.3Z" fill="#00101c" stroke="#00101c"></path><path d="M1861 966.3L1736 856.3L1710 981.2Z" fill="#0b1439" stroke="#0b1439"></path><path d="M0 876.3L145 877.3L47 802.5Z" fill="#00111f" stroke="#00111f"></path><path d="M0 0L0 82.8L36 85.8Z" fill="#0b1439" stroke="#0b1439"></path><path d="M36 85.8L0 82.8L0 185.7Z" fill="#00111f" stroke="#00111f"></path><path d="M1884 990.2L1861 966.3L1856 1090Z" fill="#00111f" stroke="#00111f"></path><path d="M107 1090L131 1053.2L109 1004.2Z" fill="#001329" stroke="#001329"></path><path d="M109 1004.2L131 1053.2L230 948.3Z" fill="#001329" stroke="#001329"></path><path d="M0 764.7L0 814.5L47 802.5Z" fill="#01132f" stroke="#01132f"></path><path d="M1861 966.3L1920 869.3L1736 856.3Z" fill="#001226" stroke="#001226"></path><path d="M1920 67.8L1920 0L1860 77.8Z" fill="#021432" stroke="#021432"></path><path d="M0 814.5L0 876.3L47 802.5Z" fill="#0b1439" stroke="#0b1439"></path><path d="M153 0L0 0L36 85.8Z" fill="#00101c" stroke="#00101c"></path><path d="M1856 1090L1861 966.3L1710 981.2Z" fill="#00132c" stroke="#00132c"></path><path d="M1861 966.3L1920 943.2L1920 869.3Z" fill="#001222" stroke="#001222"></path><path d="M1884 990.2L1920 943.2L1861 966.3Z" fill="#0b1439" stroke="#0b1439"></path><path d="M0 1025.2L107 1090L109 1004.2Z" fill="#041434" stroke="#041434"></path><path d="M131 1053.2L107 1090L219 1090Z" fill="#001329" stroke="#001329"></path><path d="M1679 1090L1856 1090L1710 981.2Z" fill="#001222" stroke="#001222"></path><path d="M1884 990.2L1920 1090L1920 943.2Z" fill="#00132c" stroke="#00132c"></path><path d="M0 876.3L0 1025.2L109 1004.2Z" fill="#0b1439" stroke="#0b1439"></path><path d="M1856 1090L1920 1090L1884 990.2Z" fill="#00132c" stroke="#00132c"></path><path d="M0 1025.2L0 1090L107 1090Z" fill="#001329" stroke="#001329"></path></g></svg>